<svg width="196" height="96" viewBox="0 0 196 96" fill="none" xmlns="http://www.w3.org/2000/svg">
<path d="M33.0909 94H0.090909V0.909088H33.3636C42.7273 0.909088 50.7879 2.77273 57.5455 6.5C64.303 10.197 69.5 15.5151 73.1364 22.4545C76.803 29.3939 78.6364 37.697 78.6364 47.3636C78.6364 57.0606 76.803 65.3939 73.1364 72.3636C69.5 79.3333 64.2727 84.6818 57.4545 88.4091C50.6667 92.1364 42.5455 94 33.0909 94ZM19.7727 77.1364H32.2727C38.0909 77.1364 42.9848 76.1061 46.9545 74.0455C50.9545 71.9545 53.9545 68.7273 55.9545 64.3636C57.9848 59.9697 59 54.303 59 47.3636C59 40.4848 57.9848 34.8636 55.9545 30.5C53.9545 26.1364 50.9697 22.9242 47 20.8636C43.0303 18.803 38.1364 17.7727 32.3182 17.7727H19.7727V77.1364ZM124.398 95.3636C117.337 95.3636 111.231 93.8636 106.08 90.8636C100.958 87.8333 97.0038 83.6212 94.2159 78.2273C91.428 72.803 90.0341 66.5152 90.0341 59.3636C90.0341 52.1515 91.428 45.8485 94.2159 40.4545C97.0038 35.0303 100.958 30.8182 106.08 27.8182C111.231 24.7879 117.337 23.2727 124.398 23.2727C131.458 23.2727 137.549 24.7879 142.67 27.8182C147.822 30.8182 151.792 35.0303 154.58 40.4545C157.367 45.8485 158.761 52.1515 158.761 59.3636C158.761 66.5152 157.367 72.803 154.58 78.2273C151.792 83.6212 147.822 87.8333 142.67 90.8636C137.549 93.8636 131.458 95.3636 124.398 95.3636ZM124.489 80.3636C127.701 80.3636 130.383 79.4545 132.534 77.6364C134.686 75.7879 136.307 73.2727 137.398 70.0909C138.519 66.9091 139.08 63.2879 139.08 59.2273C139.08 55.1667 138.519 51.5455 137.398 48.3636C136.307 45.1818 134.686 42.6667 132.534 40.8182C130.383 38.9697 127.701 38.0455 124.489 38.0455C121.246 38.0455 118.519 38.9697 116.307 40.8182C114.125 42.6667 112.473 45.1818 111.352 48.3636C110.261 51.5455 109.716 55.1667 109.716 59.2273C109.716 63.2879 110.261 66.9091 111.352 70.0909C112.473 73.2727 114.125 75.7879 116.307 77.6364C118.519 79.4545 121.246 80.3636 124.489 80.3636ZM194.489 0.909088L192.716 66.0909H176.08L174.261 0.909088H194.489ZM184.398 95.1818C181.398 95.1818 178.822 94.1212 176.67 92C174.519 89.8485 173.458 87.2727 173.489 84.2727C173.458 81.303 174.519 78.7576 176.67 76.6364C178.822 74.5152 181.398 73.4545 184.398 73.4545C187.277 73.4545 189.807 74.5152 191.989 76.6364C194.17 78.7576 195.277 81.303 195.307 84.2727C195.277 86.2727 194.746 88.1061 193.716 89.7727C192.716 91.4091 191.398 92.7273 189.761 93.7273C188.125 94.697 186.337 95.1818 184.398 95.1818Z" fill="black"/>
</svg>
